<?xml version="1.0" encoding="utf-8"?>
<!-- Generator: Adobe Illustrator 18.0.0, SVG Export Plug-In . SVG Version: 6.00 Build 0)  -->
<!DOCTYPE svg PUBLIC "-//W3C//DTD SVG 1.1//EN" "http://www.w3.org/Graphics/SVG/1.1/DTD/svg11.dtd">
<svg version="1.1" id="事件图标" xmlns="http://www.w3.org/2000/svg" xmlns:xlink="http://www.w3.org/1999/xlink" x="0px"
	 y="0px" viewBox="0 0 20 476" enable-background="new 0 0 20 476" xml:space="preserve">
<g id="严重_1_">
	<rect id="严重-line" x="8.5" y="0" fill="#FA5548" width="3" height="68"/>
	<g id="严重">
		<circle id="背景" fill="#FA5548" cx="10" cy="34" r="10"/>
		<path id="图案" fill="#FFFFFF" d="M7.9,40c0,0-3.3-1.9-3.4-3.9s1.7-4.6,1.7-4.6s0.6,1.5,0.9,1.6C7.4,33.3,8,33,8.7,31.8
			s0.8-2.1,0.8-2.7c0-0.2-0.2-1-0.2-1.1c0,0,2.2,1.8,3,3.3c0.8,1.6,0.7,2,0.7,2s0.3-0.1,0.3-1c0-0.7-0.1-1-0.1-1s2.7,2.4,2.2,5.3
			c-0.3,2-3.3,3.4-3.3,3.4s1.1-1.2,1-3.4c-0.1-1.2-2.5-3.7-2.5-3.7s0.1,2.1-0.2,2.9c-0.2,0.8-0.9,1-1.2,1c-0.8-0.1-1.4-1.6-1.4-1.6
			S7,36.1,7,37.5C7,38.1,7.9,40,7.9,40z"/>
	</g>
</g>
<g id="主要_1_">
	<rect id="主要-line" x="8.5" y="68" fill="#E06DAE" width="3" height="68"/>
	<g id="主要">
		<circle id="背景_1_" fill="#E06DAE" cx="10" cy="102" r="10"/>
		<polygon fill="#FFFFFF" points="10.9,96 5.8,102.7 9.5,103 9,108 14.3,102 10.4,101.7 		"/>
	</g>
</g>
<g id="次要_1_">
	<rect id="次要-line" x="8.5" y="136" fill="#6E7F9B" width="3" height="68"/>
	<g id="次要">
		<circle id="背景_3_" fill="#6E7F9B" cx="10" cy="170" r="10"/>
		<path id="_xFF01_" fill="#FFFFFF" d="M10,172L10,172c-0.7,0-1.2-0.5-1.2-1.2v-5.2c0-0.7,0.5-1.2,1.2-1.2h0c0.7,0,1.2,0.5,1.2,1.2
			v5.2C11.2,171.5,10.7,172,10,172z M11.2,174.4L11.2,174.4c0-0.7-0.5-1.2-1.2-1.2h0c-0.7,0-1.2,0.5-1.2,1.2l0,0
			c0,0.7,0.5,1.2,1.2,1.2h0C10.7,175.6,11.2,175.1,11.2,174.4z"/>
	</g>
</g>
<g id="警告_1_">
	<rect id="警告-line" x="8.5" y="204" fill="#E19927" width="3" height="68"/>
	<g id="警告">
		<circle id="背景_5_" fill="#E19927" cx="10" cy="238" r="10"/>
		<g id="图形">
			<path fill="none" stroke="#F7F8F8" stroke-width="2" stroke-linecap="round" stroke-miterlimit="10" d="M13.9,241.2H6.1v-4
				c0-2.2,1.8-4,3.9-4l0,0c2.1,0,3.9,1.8,3.9,3.9V241.2z M4.4,241.2h11.2 M10,232v1"/>
			<path fill="none" stroke="#F7F8F8" stroke-width="1.2" stroke-linecap="round" stroke-miterlimit="10" d="M11.5,243L11.5,243
				c0,0.6-0.7,1.2-1.5,1.2l0,0c-0.8,0-1.5-0.5-1.5-1.2l0,0"/>
		</g>
	</g>
</g>
<g id="正常_1_">
	<rect id="正常-line" x="8.5" y="272" fill="#34B761" width="3" height="68"/>
	<g id="正常">
		<circle id="背景_6_" fill="#34B761" cx="10" cy="306" r="10"/>
		<path fill="#FFFFFF" d="M15.1,302.1c-0.4-0.4-1-0.4-1.4,0L8,307.8l-1.7-1.7c-0.4-0.4-1-0.4-1.4,0s-0.4,1,0,1.4l2.4,2.4
			c0,0,0,0,0,0c0.2,0.2,0.5,0.3,0.7,0.3c0.3,0,0.5-0.1,0.7-0.3c0,0,0,0,0,0l6.3-6.3C15.5,303.1,15.5,302.5,15.1,302.1z"/>
	</g>
</g>
<g id="提示_1_">
	<rect id="提示-line" x="8.5" y="340" fill="#1F88FF" width="3" height="68"/>
	<g id="提示">
		<circle id="背景_7_" fill="#1F88FF" cx="10" cy="374" r="10"/>
		<path id="形状" fill="#FFFFFF" d="M10.8,379.5H9.2c-0.2,0-0.4-0.2-0.4-0.4v-6.2l-1.7,0.3c0-0.2,1.9-1.3,2.1-1.3h1.6
			c0.2,0,0.4,0.2,0.4,0.4v6.1h1.7C12.9,378.7,11,379.5,10.8,379.5z M10,370.9L10,370.9c-0.7,0-1.2-0.5-1.2-1.2l0,0
			c0-0.7,0.5-1.2,1.2-1.2h0c0.7,0,1.2,0.5,1.2,1.2l0,0C11.2,370.4,10.7,370.9,10,370.9z"/>
	</g>
</g>
<g id="未知_1_">
	<rect id="未知-line" x="8.5" y="408" fill="#8B7A71" width="3" height="68"/>
	<g id="未知">
		<circle id="背景_8_" fill="#8B7A71" cx="10" cy="442" r="10"/>
		<g id="形状_1_">
			<path fill="none" stroke="#FFFFFF" stroke-width="2.1" stroke-linecap="round" stroke-miterlimit="10" d="M7.2,440.3
				c0-1.7,1.2-3.2,2.8-3.2s2.8,1.2,2.8,2.8c-0.1,2.5-2.7,2.1-2.9,3.6 M9.9,443.5v0.6"/>
			<path fill="#FFFFFF" d="M10.9,446.9v-0.2c0-0.5-0.4-0.9-0.9-0.9H9.9c-0.5,0-0.9,0.4-0.9,0.9v0.2c0,0.5,0.4,0.9,0.9,0.9H10
				C10.5,447.8,10.9,447.4,10.9,446.9z"/>
		</g>
	</g>
</g>
</svg>
